# xmcd
#
# Track frame offsets:
#	183
#	13673
#	26365
#	36305
#	46775
#	59195
#	73095
#	83513
#	93885
#	102830
#	116058
#	126783
#	137753
#	150283
#	164533
#	175483
#
# Disc length: 2515
#
# Revision: 2
# Processed by: cddbd v1.5.1PL0 Copyright (c) Steve Scherf et al.
# Submitted via: dBpowerAMP V4.0
# Normalized: r0:TSWAP
#
DISCID=d009d110
DTITLE=Various Artist - Country Greats Disc 2
DYEAR=1900
DGENRE=Country
TTITLE0=Conway Twitty - It's Not Love (But It's Not Bad)
TTITLE1=Jeanne Pruett - Lost Forever In Your Kiss
TTITLE2=Bill Anderson - Oh Lonesome Me
TTITLE3=Kitty Wells - Welcome To My World
TTITLE4=Mel Tillis - Ruby (Don't Take Your Love To Town)
TTITLE5=Cal Smith - I've Found Someone Of My Own
TTITLE6=Patsy Cline - San Antonio Rose
TTITLE7=Gary Stewart - Here Comes That Feeling Again
TTITLE8=Loretta Lynn - Send Me The Pillow (That You Dream On)
TTITLE9=Marty Robbins - This Much A Man
TTITLE10=Jack Greene - Am I That Easy To Forget
TTITLE11=Jeannie Seely - All Right, I'll Sign The Papers
TTITLE12=Freddie Hart - Funny, Familiar, Forgotten Feelings
TTITLE13=Mary Lou Turner - Poor Sweet Baby
TTITLE14=Ernest Tubbs - I'm So Lonesome I Could Cry
TTITLE15=Crystal Gayle - Too Far
EXTD=ripped by shyone
EXTT0=
EXTT1=
EXTT2=
EXTT3=
EXTT4=
EXTT5=
EXTT6=
EXTT7=
EXTT8=
EXTT9=
EXTT10=
EXTT11=
EXTT12=
EXTT13=
EXTT14=
EXTT15=
PLAYORDER=
